<?xml version="1.0" standalone="no"?>
<!DOCTYPE svg PUBLIC "-//W3C//DTD SVG 20010904//EN"
 "http://www.w3.org/TR/2001/REC-SVG-20010904/DTD/svg10.dtd">
<svg version="1.0" xmlns="http://www.w3.org/2000/svg"
 width="500.000000pt" height="500.000000pt" viewBox="0 0 500.000000 500.000000"
 preserveAspectRatio="xMidYMid meet">
<metadata>
Created by potrace 1.14, written by Peter Selinger 2001-2017
</metadata>
<g transform="translate(0.000000,500.000000) scale(0.100000,-0.100000)"
fill="#000000" stroke="none">
<path d="M0 2500 l0 -2500 2500 0 2500 0 0 2500 0 2500 -2500 0 -2500 0 0
-2500z m4907 2 l-2 -2407 -2407 -2 -2407 -2 0 2409 0 2409 2409 0 2409 0 -2
-2407z"/>
<path d="M3137 3764 c-1 -1 -27 -4 -59 -8 -186 -19 -368 -152 -457 -333 -64
-128 -81 -322 -40 -431 5 -13 9 -29 9 -36 0 -7 -286 -298 -635 -647 -350 -349
-651 -654 -669 -679 -119 -159 -7 -389 191 -392 116 -2 95 -19 811 695 359
359 655 654 657 655 2 2 38 -4 81 -13 373 -83 732 198 736 576 0 83 -16 176
-39 227 l-16 33 -201 -199 -201 -199 -135 1 c-74 1 -140 4 -145 8 -6 4 -10 63
-10 147 l0 140 199 200 c222 223 215 206 96 234 -57 14 -166 27 -173 21z
m-1559 -2134 c85 -52 96 -174 20 -229 -97 -71 -226 -13 -229 102 -3 112 115
184 209 127z"/>
</g>
</svg>
